<mxfile host="app.diagrams.net" modified="2024-04-24T09:11:40.180Z" agent="Mozilla/5.0 (Windows NT 10.0; Win64; x64) AppleWebKit/537.36 (KHTML, like Gecko) Chrome/123.0.0.0 Safari/537.36" version="21.3.5" etag="ZSnPOzr2CvrbNf3lrL_X" type="github">
  <diagram name="Page-1" id="295ZaAoESu-ZqhocRzYM">
    <mxGraphModel>
      <root>
        <mxCell id="0" />
        <mxCell id="1" parent="0" />
      </root>
    </mxGraphModel>
  </diagram>
</mxfile>
